# xmcd CD database file
# Copyright (C) 1993-1998 Ti Kan
#
# Track frame offsets:
#	180
#	13107
#	23826
#	35713
#	51262
#	69328
#	88905
#	104426
#	119256
#	134181
#	145072
#	157092
#	162655
#
# Disc length: 2389 seconds
#
# Revision: 1
# Processed by: cddbd v1.4b41PL1 Copyright (c) Steve Scherf et al.
# Submitted via: NotifyCDPlayer(CDDB) 1.51.3
#
DISCID=c109530d
DTITLE=Del Rey - Hot Sauce
DYEAR=1900
DGENRE=
TTITLE0=Boogie-Woogie Country Girl
TTITLE1=Hot Sauce Song
TTITLE2=Little Dog Blues
TTITLE3=How Can You Have The Blues
TTITLE4=Crazy Crying Blues
TTITLE5=Montgomery Blues
TTITLE6=Blue Love
TTITLE7=Face The Music and Dance
TTITLE8=Far Away Blues
TTITLE9=My Baby Just Cares For Me
TTITLE10=Straw Broom Boogie
TTITLE11=Saaborama
TTITLE12=Down The Dirt Road Blues
EXTD=
EXTT0=
EXTT1=
EXTT2=
EXTT3=
EXTT4=
EXTT5=
EXTT6=
EXTT7=
EXTT8=
EXTT9=
EXTT10=
EXTT11=
EXTT12=
PLAYORDER=
